<svg version="1.1" xmlns="http://www.w3.org/2000/svg" viewBox="0 0 397.11329226800353 358.9330832817243"
     width="794.2265845360071" height="717.8661665634486">
    <!-- svg-source:excalidraw -->

    <defs>
        <style class="style-fonts">
            @font-face {
            font-family: "Virgil";
            src: url("https://excalidraw.com/Virgil.woff2");
            }
            @font-face {
            font-family: "Cascadia";
            src: url("https://excalidraw.com/Cascadia.woff2");
            }
            @font-face {
            font-family: "Assistant";
            src: url("https://excalidraw.com/Assistant-Regular.woff2");
            }
        </style>

    </defs>
    <rect x="0" y="0" width="397.11329226800353" height="358.9330832817243" fill="#ffffff"></rect>
    <g stroke-linecap="round"
       transform="translate(232.38297163939114 14.16421660315882) rotate(0 77.36516031430665 77.36516031430665)">
        <path d="M49.08 5.92 C58.12 1.22, 70.76 0.54, 81.24 0.99 C91.73 1.44, 102.72 4, 112.01 8.6 C121.31 13.2, 130.29 20.48, 137.03 28.58 C143.78 36.67, 149.68 46.98, 152.48 57.17 C155.27 67.35, 155.52 79.31, 153.81 89.66 C152.1 100.01, 147.74 110.53, 142.23 119.24 C136.72 127.95, 129.48 136.22, 120.73 141.94 C111.98 147.65, 100.11 151.82, 89.73 153.54 C79.35 155.26, 68.41 155, 58.44 152.26 C48.48 149.52, 38.31 143.5, 29.93 137.09 C21.55 130.68, 13.29 122.9, 8.18 113.78 C3.06 104.66, -0.17 92.92, -0.78 82.37 C-1.39 71.81, 0.61 60.47, 4.54 50.45 C8.47 40.44, 14.03 30.12, 22.81 22.26 C31.59 14.41, 50.49 6.66, 57.22 3.32 C63.95 -0.02, 63.07 0.92, 63.18 2.22 M41.59 9.26 C49.62 3.66, 62.45 -0.67, 73.09 -1.34 C83.72 -2.01, 95.73 1.09, 105.41 5.26 C115.09 9.44, 123.64 16.46, 131.17 23.7 C138.69 30.93, 146.73 39.04, 150.57 48.68 C154.41 58.32, 154.7 70.81, 154.21 81.54 C153.71 92.28, 152.58 103.93, 147.6 113.07 C142.62 122.22, 132.96 130.09, 124.31 136.42 C115.67 142.75, 105.88 148.05, 95.73 151.06 C85.58 154.08, 73.32 155.9, 63.41 154.52 C53.5 153.14, 44.91 148.65, 36.28 142.81 C27.64 136.96, 17.46 128.4, 11.6 119.47 C5.75 110.54, 2.5 99.59, 1.15 89.24 C-0.2 78.88, 0.58 67.44, 3.49 57.33 C6.41 47.23, 12.21 36.57, 18.66 28.59 C25.1 20.62, 37.93 12.45, 42.19 9.47 C46.44 6.5, 43.75 9.82, 44.17 10.77"
              stroke="none" stroke-width="0" fill="#ffec99"></path>
        <path d="M51.23 5.22 C60.46 0.69, 73.73 -0.27, 84.37 0.28 C95.01 0.82, 105.96 3.61, 115.07 8.47 C124.18 13.33, 132.79 20.98, 139.03 29.46 C145.27 37.94, 150.16 49.03, 152.52 59.35 C154.87 69.67, 155.19 81.15, 153.17 91.37 C151.14 101.59, 146.34 112.01, 140.35 120.68 C134.36 129.35, 125.89 137.93, 117.22 143.38 C108.55 148.83, 98.71 152.1, 88.33 153.39 C77.95 154.67, 65.31 154.03, 54.94 151.07 C44.57 148.11, 33.97 142.31, 26.1 135.61 C18.23 128.92, 12.12 120.32, 7.73 110.9 C3.33 101.49, 0.1 89.61, -0.29 79.1 C-0.68 68.58, 1.45 57.46, 5.36 47.83 C9.27 38.2, 14.69 28.66, 23.18 21.31 C31.67 13.95, 49.88 6.69, 56.31 3.7 C62.74 0.7, 61.26 2.17, 61.75 3.36 M89.49 1.38 C99.44 1.34, 109.75 5.02, 118.39 10.4 C127.04 15.79, 135.67 24.94, 141.35 33.68 C147.03 42.43, 150.78 52.39, 152.47 62.88 C154.17 73.37, 153.88 86.04, 151.51 96.62 C149.14 107.2, 144.76 118.07, 138.26 126.36 C131.76 134.66, 121.78 141.67, 112.5 146.38 C103.22 151.09, 93.06 153.96, 82.59 154.62 C72.13 155.27, 59.33 153.7, 49.74 150.31 C40.14 146.91, 32.57 141.68, 25.04 134.24 C17.51 126.79, 8.99 115.74, 4.57 105.63 C0.16 95.53, -1.82 83.82, -1.44 73.62 C-1.07 63.42, 1.97 53.79, 6.81 44.44 C11.65 35.1, 19.59 24.52, 27.6 17.54 C35.61 10.55, 44.83 5.37, 54.86 2.55 C64.89 -0.27, 82.05 0.47, 87.77 0.63 C93.5 0.79, 89.26 2.12, 89.19 3.51"
              stroke="#1e1e1e" stroke-width="1" fill="none"></path>
    </g>
    <g stroke-linecap="round" transform="translate(10 10) rotate(0 169.46654164086203 169.46654164086215)">
        <path d="M212.5 42.5 C240.73 68.26, 259.45 95.63, 296.43 127.5 C342.39 173.58, 337.94 168.3, 296.43 212.5 C282.6 227.29, 262.72 248.01, 212.5 296.43 C167.4 337.05, 168.01 337.68, 127.5 296.43 C98.38 269.01, 72.44 238.83, 42.5 212.5 C2.69 170.84, 0.15 173.19, 42.5 127.5 C72.25 99.64, 93.26 75.8, 127.5 42.5 C169.4 -1.41, 173.54 -2.59, 212.5 42.5"
              stroke="none" stroke-width="0" fill="#b2f2bb"></path>
        <path d="M212.5 42.5 C235 66.57, 258.41 88.3, 296.43 127.5 M212.5 42.5 C239.56 70.96, 268.55 98.89, 296.43 127.5 M296.43 127.5 C339.96 171.64, 339.63 169.63, 296.43 212.5 M296.43 127.5 C338.56 170.2, 341.23 169.69, 296.43 212.5 M296.43 212.5 C275.42 230.43, 257.15 250.13, 212.5 296.43 M296.43 212.5 C269.61 240.6, 241.64 266.77, 212.5 296.43 M212.5 296.43 C168.66 337.97, 169.48 338.77, 127.5 296.43 M212.5 296.43 C171.09 338.17, 170.12 340.1, 127.5 296.43 M127.5 296.43 C99.06 265.57, 68.43 236.51, 42.5 212.5 M127.5 296.43 C93.64 264.66, 60.29 230.81, 42.5 212.5 M42.5 212.5 C-0.19 168.91, -0.45 171.23, 42.5 127.5 M42.5 212.5 C0.33 169.33, 0.07 169.93, 42.5 127.5 M42.5 127.5 C67.1 101.41, 92.44 76.59, 127.5 42.5 M42.5 127.5 C73.49 94.23, 107 60.62, 127.5 42.5 M127.5 42.5 C171.05 -1.84, 168.5 -0.27, 212.5 42.5 M127.5 42.5 C170.34 -0.78, 171.68 -1.85, 212.5 42.5"
              stroke="#1e1e1e" stroke-width="1" fill="none"></path>
    </g>
    <g stroke-linecap="round"
       transform="translate(250.8697035176383 211.01923270481097) rotate(0 65.6431663272906 65.6431663272906)">
        <path d="M32 0 C57.98 -0.09, 85.61 -0.18, 99.29 0 C122.14 3.4, 133.55 11.78, 131.29 32 C128.9 52.71, 132.73 76.9, 131.29 99.29 C133.45 120.68, 123.18 128.06, 99.29 131.29 C75.52 128.88, 50.95 130.28, 32 131.29 C7.52 127.77, -1.9 122.95, 0 99.29 C2.5 80.96, -1.67 61.51, 0 32 C-1.08 11.47, 12.21 -2.1, 32 0"
              stroke="none" stroke-width="0" fill="#a5d8ff"></path>
        <path d="M32 0 C51.26 1.39, 73.24 -0.18, 99.29 0 M32 0 C53.15 0.56, 74.97 -1.12, 99.29 0 M99.29 0 C118.91 -0.74, 129.31 12.55, 131.29 32 M99.29 0 C121.67 0.83, 131.28 9.77, 131.29 32 M131.29 32 C130.04 51.45, 130.38 67.38, 131.29 99.29 M131.29 32 C130.44 46.45, 131.07 61.75, 131.29 99.29 M131.29 99.29 C132.36 122.36, 119.86 129.68, 99.29 131.29 M131.29 99.29 C132.32 121.09, 120.72 129.28, 99.29 131.29 M99.29 131.29 C73.2 130.84, 44.95 132.46, 32 131.29 M99.29 131.29 C77.67 132.72, 57.88 131.61, 32 131.29 M32 131.29 C9.13 132.39, 1.83 122.12, 0 99.29 M32 131.29 C10.72 132.92, 0.15 118.69, 0 99.29 M0 99.29 C2.4 77.63, 1.07 58.92, 0 32 M0 99.29 C-0.38 78.91, 0.66 58.65, 0 32 M0 32 C-1.96 9.93, 9.07 0.12, 32 0 M0 32 C-0.06 10.28, 9.19 -1.91, 32 0"
              stroke="#1e1e1e" stroke-width="1" fill="none"></path>
    </g>
    <g stroke-opacity="0.6" fill-opacity="0.6" stroke-linecap="round"
       transform="translate(105.78410003953832 100.58954349552778) rotate(0 31.47518481114821 31.47518481114821)">
        <path d="M36.28 0.3 C42.58 0.9, 50.38 5.8, 54.77 11.05 C59.15 16.29, 62.34 25.06, 62.59 31.76 C62.83 38.46, 60.56 46.08, 56.22 51.24 C51.89 56.4, 43.38 61.54, 36.56 62.72 C29.74 63.9, 20.9 61.53, 15.28 58.32 C9.67 55.11, 5.1 49.5, 2.85 43.44 C0.61 37.38, -0.34 28.42, 1.82 21.97 C3.98 15.51, 9.57 8.2, 15.8 4.71 C22.04 1.23, 35.21 1.45, 39.24 1.05 C43.26 0.65, 40.27 1.98, 39.96 2.3 M23.09 0.21 C29.46 -1.86, 39.44 0.31, 45.42 3.39 C51.39 6.46, 56.38 12.51, 58.94 18.67 C61.5 24.82, 62.42 33.59, 60.77 40.32 C59.12 47.05, 54.3 55.14, 49.07 59.05 C43.84 62.96, 36.09 64.55, 29.38 63.76 C22.67 62.96, 13.63 59.31, 8.83 54.29 C4.02 49.26, 0.78 40.7, 0.56 33.6 C0.34 26.49, 3.7 17.07, 7.52 11.67 C11.34 6.27, 20.55 2.74, 23.51 1.2 C26.46 -0.34, 24.83 2.11, 25.26 2.42"
              stroke="none" stroke-width="0" fill="#ffffff"></path>
        <path d="M38.21 1.27 C44.54 2.37, 51.65 7.58, 55.75 12.73 C59.85 17.87, 63.06 25.57, 62.81 32.14 C62.57 38.72, 58.85 47.17, 54.27 52.19 C49.69 57.2, 42.08 61.14, 35.36 62.23 C28.64 63.32, 19.45 62.19, 13.97 58.73 C8.49 55.28, 4.29 47.84, 2.49 41.49 C0.69 35.14, 0.71 27.06, 3.16 20.64 C5.61 14.22, 10.42 5.82, 17.2 2.99 C23.99 0.15, 38.19 2.75, 43.88 3.6 C49.57 4.45, 51.49 7.73, 51.35 8.06 M18.62 3.11 C24.26 -0.01, 34.15 -0.39, 40.51 1.34 C46.88 3.07, 52.99 7.84, 56.81 13.49 C60.62 19.13, 63.93 28.38, 63.39 35.22 C62.85 42.07, 58.43 50.03, 53.59 54.56 C48.75 59.1, 41.25 62.04, 34.35 62.44 C27.44 62.84, 17.75 60.81, 12.17 56.95 C6.59 53.09, 2.57 45.7, 0.88 39.3 C-0.81 32.9, -0.7 24.82, 2.03 18.57 C4.76 12.32, 14.51 4.3, 17.26 1.8 C20.01 -0.69, 18.11 2.99, 18.53 3.61"
              stroke="#1e1e1e" stroke-width="2" fill="none"></path>
    </g>
    <g stroke-opacity="0.6" fill-opacity="0.6" stroke-linecap="round"
       transform="translate(63.94061905530725 162.42902424213707) rotate(0 19.995999762376414 19.995999762376414)">
        <path d="M22.54 -0.29 C26.53 -0.11, 31.31 3.07, 34.16 6.26 C37 9.45, 39.3 14.58, 39.6 18.85 C39.9 23.11, 38.4 28.47, 35.95 31.86 C33.49 35.25, 29.06 38.15, 24.88 39.17 C20.69 40.2, 14.73 39.94, 10.85 38.01 C6.97 36.09, 3.21 31.64, 1.59 27.61 C-0.03 23.59, -0.07 17.94, 1.12 13.87 C2.3 9.8, 5.01 5.41, 8.69 3.19 C12.38 0.97, 20.85 0.89, 23.23 0.55 C25.61 0.22, 23.08 0.98, 22.95 1.18 M23.28 0.16 C27.47 0.6, 32.2 3.73, 35.08 7.07 C37.96 10.41, 40.42 15.99, 40.55 20.18 C40.67 24.37, 38.58 29.05, 35.85 32.21 C33.12 35.37, 28.44 38.33, 24.17 39.14 C19.9 39.95, 14.13 39.13, 10.23 37.07 C6.33 35, 2.21 30.74, 0.75 26.76 C-0.71 22.78, 0.07 17.09, 1.48 13.18 C2.88 9.27, 5.49 5.49, 9.19 3.29 C12.89 1.1, 21.45 0.35, 23.66 0.02 C25.87 -0.32, 22.49 0.88, 22.44 1.25"
              stroke="none" stroke-width="0" fill="#ffffff"></path>
        <path d="M22.1 0.6 C26.11 0.9, 31.74 3.1, 34.8 6.16 C37.86 9.21, 40.23 14.58, 40.47 18.94 C40.71 23.29, 39 28.93, 36.24 32.29 C33.48 35.66, 28.12 38.21, 23.9 39.12 C19.69 40.03, 14.75 39.67, 10.96 37.72 C7.16 35.78, 2.72 31.35, 1.11 27.43 C-0.49 23.51, 0.05 18.2, 1.33 14.21 C2.61 10.21, 5.14 5.8, 8.77 3.45 C12.4 1.09, 20.61 0.47, 23.12 0.07 C25.63 -0.34, 23.87 0.67, 23.83 1.03 M21.51 -0.43 C25.64 -0.18, 31.3 3, 34.44 6.08 C37.57 9.16, 39.99 13.84, 40.34 18.05 C40.69 22.26, 38.96 27.88, 36.54 31.35 C34.12 34.81, 30.05 37.77, 25.83 38.84 C21.61 39.92, 15.11 39.51, 11.22 37.79 C7.32 36.08, 4.15 32.47, 2.46 28.57 C0.78 24.67, 0.04 18.53, 1.1 14.38 C2.16 10.22, 5.47 6.11, 8.82 3.64 C12.17 1.16, 19.09 -0.05, 21.21 -0.48 C23.33 -0.91, 21.5 0.54, 21.54 1.08"
              stroke="#1e1e1e" stroke-width="2" fill="none"></path>
    </g>
</svg>